<svg id="Layer_1" data-name="Layer 1" xmlns="http://www.w3.org/2000/svg" viewBox="0 0 43.475 37"><defs><style>.cls-1{fill:#aaa;}.cls-2{fill:#00b9e4;}</style></defs><title>labs-logo icon</title><path class="cls-1" d="M7.62611,36.04485l3.38361-3.67542,17.96757,4.5137a.77174.77174,0,0,0,.69112-.16259l.51419-.44045c.01485-.01258.0292-.02592.043-.03951L41.80939,24.69534a4.74655,4.74655,0,0,0,1.6143-3.43976,3.2172,3.2172,0,0,0-.98937-2.21419L42.4089,19.02c-1.649-1.33392-3.67056-.04807-4.5225.83093L31.932,25.47529a4.67618,4.67618,0,0,1,.75355,2.705,3.75882,3.75882,0,0,1-4.5006,3.49293c-1.78313-.28806-3.57355-.91675-5.32122-1.37132l-6.2767-1.63255a1.16186,1.16186,0,0,1-.75227-1.35408c.22568-.75227.677-1.05317,1.28871-.88513l7.38713,2.045c.8588.23775,1.6999.53514,2.55985.76891a3.56832,3.56832,0,0,0,2.0855.21784,1.80735,1.80735,0,0,0,.91259-2.66793c-.75479-.95711-2.26543-1.11556-3.36269-1.40957l-5.118-1.37132-9.16221-2.455c-.11934-.032-.23882-.06351-.358-.09593a.77106.77106,0,0,0-.74661.19984L.33607,32.60765c-.43066.46957-.48948.88133.20278,1.164l5.96552,2.27944S7.28936,36.37027,7.62611,36.04485Z"/><path class="cls-2" d="M31.47859,17.67293a.58168.58168,0,0,1-.20138-.03593L28.05534,16.4483a.5814.5814,0,0,1-.37181-.44722L27.1021,12.6166a.58125.58125,0,0,1,.20138-.54578L29.94392,9.875a.58135.58135,0,0,1,.57319-.09856L33.739,10.96519a.5814.5814,0,0,1,.37181.44722l.58143,3.38448a.58125.58125,0,0,1-.20138.54578l-2.64043,2.19577A.58044.58044,0,0,1,31.47859,17.67293ZM28.77311,15.473l2.59186.95622,2.12376-1.7663-.46753-2.72252-2.59186-.95622-2.12376,1.7663Z"/><path class="cls-2" d="M13.55994,7.942a.58168.58168,0,0,1-.20138-.03593L10.13669,6.71738a.58182.58182,0,0,1-.372-.44736L9.18346,2.88554a.58145.58145,0,0,1,.20138-.54564L12.02513.14413a.58218.58218,0,0,1,.57333-.09856l3.22172,1.18885a.58182.58182,0,0,1,.372.44736l.58143,3.38448a.58145.58145,0,0,1-.20138.54564L13.93189,7.80752A.58111.58111,0,0,1,13.55994,7.942ZM10.85461,5.74213l2.59158.95622,2.12391-1.76616-.46767-2.72252-2.59158-.95636-2.12391,1.7663Z"/><path class="cls-2" d="M37.30765,7.942a.58168.58168,0,0,1-.20138-.03593L33.8844,6.71738a.5814.5814,0,0,1-.37181-.44722l-.58143-3.38448a.58125.58125,0,0,1,.20138-.54578L35.773.14413a.58249.58249,0,0,1,.57319-.09856l3.22158,1.18885a.58139.58139,0,0,1,.37181.44736L40.521,5.06626a.58159.58159,0,0,1-.2011.54564L37.67974,7.80752A.58177.58177,0,0,1,37.30765,7.942ZM34.60217,5.74213l2.59186.95622,2.12348-1.76616L38.85,2.20967l-2.59158-.95636-2.12376,1.7663Z"/><path class="cls-2" d="M25.32174,7.93222a.58168.58168,0,0,1-.20138-.03593L21.89864,6.70758a.58184.58184,0,0,1-.372-.44722l-.58143-3.38448a.58158.58158,0,0,1,.20138-.54578L23.78679.13433a.58313.58313,0,0,1,.57348-.09856l3.22186,1.18871a.5814.5814,0,0,1,.37181.44722l.58143,3.38448A.58125.58125,0,0,1,28.334,5.602L25.69355,7.79772A.58044.58044,0,0,1,25.32174,7.93222ZM22.61641,5.73233l2.59172.95622,2.12376-1.7663-.46753-2.72252L24.2725,1.24351l-2.12376,1.7663Z"/><path class="cls-2" d="M19.53344,17.65333a.58168.58168,0,0,1-.20138-.03593L16.11033,16.4287a.58184.58184,0,0,1-.372-.44722L15.157,12.597a.58158.58158,0,0,1,.20138-.54578l2.64029-2.19577a.58156.58156,0,0,1,.57333-.09856l3.22172,1.18871a.58184.58184,0,0,1,.372.44722l.58143,3.38448a.58158.58158,0,0,1-.20138.54578l-2.64029,2.19577A.58111.58111,0,0,1,19.53344,17.65333ZM16.8281,15.45345l2.59158.95622,2.12391-1.7663-.46767-2.72252-2.59158-.95622-2.12391,1.7663Z"/><path class="cls-2" d="M21.24875,3.45831H16.12894a.58171.58171,0,0,1,0-1.16343h5.11982a.58171.58171,0,0,1,0,1.16343Z"/><path class="cls-2" d="M33.40154,3.45831H28.065a.58171.58171,0,1,1,0-1.16343h5.33654a.58171.58171,0,0,1,0,1.16343Z"/><path class="cls-2" d="M31.98759,11.20279a.58171.58171,0,0,1-.41129-.993l3.563-3.56285a.58165.58165,0,1,1,.82258.82258l-3.563,3.56285A.57983.57983,0,0,1,31.98759,11.20279Z"/><path class="cls-2" d="M19.964,11.39509a.58171.58171,0,0,1-.41129-.993L23.5002,6.4545a.58165.58165,0,0,1,.82258.82258l-3.94744,3.94758A.57959.57959,0,0,1,19.964,11.39509Z"/></svg>