<svg id="Layer_1" data-name="Layer 1" xmlns="http://www.w3.org/2000/svg" viewBox="0 0 172 18"><defs><style>.cls-1{isolation:isolate;}.cls-2{fill:#fff;}</style></defs><title>labs-logo text</title><g class="cls-1"><g class="cls-1"><path class="cls-2" d="M.44189.71973H4.08984V13.99316h8.06494v3.52832H.44189Z"/></g><g class="cls-1"><path class="cls-2" d="M24.80273,14.25684h-6.3125l-1.248,3.26465H13.25781L19.88232.71973h3.50439l6.64844,16.80176H26.05078ZM22.13867,7.27246a14.11118,14.11118,0,0,1-.50391-1.416,9.99252,9.99252,0,0,1-.50439,1.416l-1.43994,3.624h3.88818Z"/></g><g class="cls-1"><path class="cls-2" d="M39.48926.71973C43.6416.71973,45.03369,3,45.03369,5.28027a3.53167,3.53167,0,0,1-1.896,3.48047,3.90034,3.90034,0,0,1,2.44824,3.7207c0,2.44824-1.51221,5.04-5.78467,5.04H31.56885V.71973Zm1.82422,4.96875c0-.74414-.26416-1.56055-1.80029-1.56055H35.2168V7.27246h3.9126C40.6416,7.27246,41.31348,6.64844,41.31348,5.68848Zm.57617,6.7207c0-.88867-.43213-1.84863-2.56836-1.84863H35.2168v3.52832h4.75244A1.679,1.679,0,0,0,41.88965,12.40918Z"/><path class="cls-2" d="M47.02441,12.88867,50.28906,11.665a4.14762,4.14762,0,0,0,3.57617,2.68848c1.51221,0,2.52-.57617,2.52-1.72852,0-1.17578-1.43994-1.63184-3.19189-2.18457-2.52051-.81543-5.49658-1.752-5.49658-5.25586,0-2.59277,2.13623-4.75293,5.88037-4.75293a5.74078,5.74078,0,0,1,5.83252,4.20117L56.14551,5.68848a2.77036,2.77036,0,0,0-2.76025-1.7998c-1.32031,0-2.04.47949-2.04,1.36816,0,.86328,1.2959,1.27148,2.856,1.7998,2.54443.81641,5.83252,1.87207,5.83252,5.59277,0,3.26367-2.76025,5.16016-6.26465,5.16016A6.81069,6.81069,0,0,1,47.02441,12.88867Z"/></g><g class="cls-1"><path class="cls-2" d="M73.92676,17.81445a7.044,7.044,0,0,1-2.32617-.35742,5.95068,5.95068,0,0,1-3.11719-2.42578,8.41494,8.41494,0,0,1-.88477-1.80469,11.01977,11.01977,0,0,1-.498-2.01562,14.00652,14.00652,0,0,1-.1582-2.0918,12.91169,12.91169,0,0,1,.1582-1.98047,10.80809,10.80809,0,0,1,.50391-1.98633A8.87356,8.87356,0,0,1,68.501,3.33008a6.56893,6.56893,0,0,1,1.32422-1.5,6.01813,6.01813,0,0,1,1.793-1.01953,6.65577,6.65577,0,0,1,2.30859-.375,7.35716,7.35716,0,0,1,2.13281.28711,6.29135,6.29135,0,0,1,1.6582.75586,5.1619,5.1619,0,0,1,1.18945,1.06641,5.03108,5.03108,0,0,1,.73828,1.21875L77.36035,4.83008a6.25882,6.25882,0,0,0-.63867-.84961,3.61388,3.61388,0,0,0-.73828-.627,3.10919,3.10919,0,0,0-.9082-.38672,4.6485,4.6485,0,0,0-1.14844-.12891,3.87642,3.87642,0,0,0-1.49414.26953,3.61382,3.61382,0,0,0-1.13672.73828,4.50492,4.50492,0,0,0-.82617,1.08984,6.64146,6.64146,0,0,0-.54492,1.31836A9.17533,9.17533,0,0,0,69.626,7.68945a11.35113,11.35113,0,0,0-.09375,1.42969,10.21536,10.21536,0,0,0,.252,2.23828,6.83626,6.83626,0,0,0,.791,2.02734,4.56694,4.56694,0,0,0,1.37109,1.46484,3.4513,3.4513,0,0,0,1.98047.5625,3.68844,3.68844,0,0,0,1.11914-.1582,3.42363,3.42363,0,0,0,.91406-.44531,3.771,3.771,0,0,0,.75-.68555,7.1995,7.1995,0,0,0,.627-.87891l2.332.89063a6.948,6.948,0,0,1-.873,1.5,5.26128,5.26128,0,0,1-1.23047,1.16016,5.80471,5.80471,0,0,1-1.61719.75A7.09167,7.09167,0,0,1,73.92676,17.81445Z"/><path class="cls-2" d="M89.28809,17.81445A7.57653,7.57653,0,0,1,86.874,17.457a6.54217,6.54217,0,0,1-1.88086-.97266,6.20864,6.20864,0,0,1-1.38867-1.45312,8.41594,8.41594,0,0,1-.9375-1.80469,10.47972,10.47972,0,0,1-.5332-2.01562,12.8882,12.8882,0,0,1,0-4.17187,10.47972,10.47972,0,0,1,.5332-2.01562,8.41594,8.41594,0,0,1,.9375-1.80469,6.20864,6.20864,0,0,1,1.38867-1.45312A6.54217,6.54217,0,0,1,86.874.793a8.33112,8.33112,0,0,1,4.82813,0,6.54217,6.54217,0,0,1,1.88086.97266,6.20864,6.20864,0,0,1,1.38867,1.45313,8.41594,8.41594,0,0,1,.9375,1.80469,10.19235,10.19235,0,0,1,.52734,2.01563,13.34253,13.34253,0,0,1,0,4.17188,10.19235,10.19235,0,0,1-.52734,2.01563,8.41594,8.41594,0,0,1-.9375,1.80469A6.20864,6.20864,0,0,1,93.583,16.48438a6.54217,6.54217,0,0,1-1.88086.97266A7.57653,7.57653,0,0,1,89.28809,17.81445Zm0-2.40234a4.21579,4.21579,0,0,0,1.57031-.27539,4.02184,4.02184,0,0,0,1.21289-.74414,4.59967,4.59967,0,0,0,.89063-1.0957,6.995,6.995,0,0,0,.60352-1.32422,8.10214,8.10214,0,0,0,.33984-1.42969,9.98734,9.98734,0,0,0,.10547-1.42383,10.72023,10.72023,0,0,0-.10547-1.48242,8.03563,8.03563,0,0,0-.33984-1.45312A6.52559,6.52559,0,0,0,92.96191,4.877a4.41791,4.41791,0,0,0-.89062-1.06055,4.02892,4.02892,0,0,0-1.21289-.71484,4.38312,4.38312,0,0,0-1.57031-.26367,4.21579,4.21579,0,0,0-1.57031.27539,4.1002,4.1002,0,0,0-1.21875.74414,4.529,4.529,0,0,0-.89648,1.0957A6.995,6.995,0,0,0,84.999,6.27734,8.10214,8.10214,0,0,0,84.65918,7.707a9.91045,9.91045,0,0,0-.10547,1.41211,10.31547,10.31547,0,0,0,.24609,2.2207,6.447,6.447,0,0,0,.80859,2.02734,4.56063,4.56063,0,0,0,1.46484,1.47656A4.07625,4.07625,0,0,0,89.28809,15.41211Z"/><path class="cls-2" d="M110.12207,17.52148,102.85645,6.11914,102.17676,4.877l.07031,1.24219V17.52148H99.751V.7168h2.51953l7.08984,11.21484.69141,1.28906-.07031-1.26562V.7168h2.49609V17.52148Z"/><path class="cls-2" d="M124.06543,4.53711a2.49783,2.49783,0,0,0-.42187-.67383,2.63347,2.63347,0,0,0-.65625-.53906,3.4089,3.4089,0,0,0-.88477-.35742,4.42006,4.42006,0,0,0-1.10742-.12891,3.00978,3.00978,0,0,0-1.88672.52734,1.77453,1.77453,0,0,0-.67969,1.48828,1.45973,1.45973,0,0,0,.375,1.01367,3.44243,3.44243,0,0,0,.98438.73242,9.91421,9.91421,0,0,0,1.38867.58008q.7793.26367,1.59375.57422a15.27873,15.27873,0,0,1,1.59375.71484,6.024,6.024,0,0,1,1.38867.98438,4.49981,4.49981,0,0,1,.98438,1.39453,4.6366,4.6366,0,0,1,.375,1.95117,4.958,4.958,0,0,1-.43945,2.13867A4.4947,4.4947,0,0,1,125.46,16.50781a5.40062,5.40062,0,0,1-1.82227.97266,7.81608,7.81608,0,0,1-4.35937.04688,6.33154,6.33154,0,0,1-1.76953-.82031,5.71182,5.71182,0,0,1-1.36523-1.28906,5.89122,5.89122,0,0,1-.89062-1.69336l2.35547-.85547a4.79717,4.79717,0,0,0,.63867,1.03125,4.05081,4.05081,0,0,0,.873.80273,4.13534,4.13534,0,0,0,2.35547.709,4.42612,4.42612,0,0,0,1.24219-.16406,2.66422,2.66422,0,0,0,.96094-.49219,2.25468,2.25468,0,0,0,.62109-.81445,2.66207,2.66207,0,0,0,.22266-1.11914,2.06777,2.06777,0,0,0-.375-1.25977,3.43818,3.43818,0,0,0-.98437-.88477,7.50509,7.50509,0,0,0-1.38867-.65625q-.7793-.28125-1.59375-.57422T118.58691,8.791a5.948,5.948,0,0,1-1.38867-.89062,4.12614,4.12614,0,0,1-.98437-1.26562,3.95241,3.95241,0,0,1-.375-1.80469,4.07514,4.07514,0,0,1,1.39453-3.08789,4.99263,4.99263,0,0,1,1.67578-.95508,6.8105,6.8105,0,0,1,2.27344-.35156,6.92083,6.92083,0,0,1,1.93359.252,5.2657,5.2657,0,0,1,1.51758.69727,4.28808,4.28808,0,0,1,1.084,1.05469,4.66032,4.66032,0,0,1,.65625,1.32422Z"/><path class="cls-2" d="M136.86035,17.81445a7.57653,7.57653,0,0,1-2.41406-.35742,6.54217,6.54217,0,0,1-1.88086-.97266,6.20864,6.20864,0,0,1-1.38867-1.45312,8.41594,8.41594,0,0,1-.9375-1.80469,10.47972,10.47972,0,0,1-.5332-2.01562,12.8882,12.8882,0,0,1,0-4.17187,10.47972,10.47972,0,0,1,.5332-2.01562,8.41594,8.41594,0,0,1,.9375-1.80469,6.20864,6.20864,0,0,1,1.38867-1.45312A6.54217,6.54217,0,0,1,134.44629.793a8.33112,8.33112,0,0,1,4.82813,0,6.54217,6.54217,0,0,1,1.88086.97266,6.20864,6.20864,0,0,1,1.38867,1.45313,8.41594,8.41594,0,0,1,.9375,1.80469,10.19235,10.19235,0,0,1,.52734,2.01563,13.34253,13.34253,0,0,1,0,4.17188,10.19235,10.19235,0,0,1-.52734,2.01563,8.41594,8.41594,0,0,1-.9375,1.80469,6.20864,6.20864,0,0,1-1.38867,1.45313,6.54217,6.54217,0,0,1-1.88086.97266A7.57653,7.57653,0,0,1,136.86035,17.81445Zm0-2.40234a4.21579,4.21579,0,0,0,1.57031-.27539,4.02184,4.02184,0,0,0,1.21289-.74414,4.59967,4.59967,0,0,0,.89063-1.0957,6.995,6.995,0,0,0,.60352-1.32422,8.10214,8.10214,0,0,0,.33984-1.42969,9.98734,9.98734,0,0,0,.10547-1.42383,10.72023,10.72023,0,0,0-.10547-1.48242,8.03563,8.03563,0,0,0-.33984-1.45312,6.52559,6.52559,0,0,0-.60352-1.30664,4.41791,4.41791,0,0,0-.89062-1.06055,4.02892,4.02892,0,0,0-1.21289-.71484,4.38312,4.38312,0,0,0-1.57031-.26367,4.21579,4.21579,0,0,0-1.57031.27539,4.1002,4.1002,0,0,0-1.21875.74414,4.529,4.529,0,0,0-.89648,1.0957,6.995,6.995,0,0,0-.60352,1.32422,8.10214,8.10214,0,0,0-.33984,1.42969,9.91045,9.91045,0,0,0-.10547,1.41211,10.31547,10.31547,0,0,0,.24609,2.2207,6.447,6.447,0,0,0,.80859,2.02734,4.56063,4.56063,0,0,0,1.46484,1.47656A4.07625,4.07625,0,0,0,136.86035,15.41211Z"/><path class="cls-2" d="M147.32422,17.52148V.7168h2.49609V15.11914h8.21484v2.40234Z"/><path class="cls-2" d="M160.69336,17.52148V.7168h10.418V3.07227h-7.92187V7.67773h5.12109V10.0332h-5.12109V15.166h8.44922v2.35547Z"/></g></g></svg>