<?xml version="1.0" standalone="no"?>
<!DOCTYPE svg PUBLIC "-//W3C//DTD SVG 20010904//EN"
 "http://www.w3.org/TR/2001/REC-SVG-20010904/DTD/svg10.dtd">
<svg version="1.0" 
  xmlns="http://www.w3.org/2000/svg"
  width="203.000000pt" 
  height="215.000000pt" 
  viewBox="0 0 203.000000 215.000000"
  preserveAspectRatio="xMidYMid meet" 
  class="magnet-bank-logo">
<g transform="translate(0.000000,215.000000) scale(0.100000,-0.100000)"
 fill="#ffffff">
<path d="M590 1889 c-512 -323 -482 -302 -478 -342 2 -22 11 -35 28 -44 36
-18 1694 -18 1730 0 28 14 39 59 20 82 -22 26 -867 555 -886 555 -11 -1 -197
-113 -414 -251z m933 -200 l117 -74 -314 -3 c-173 -1 -459 -1 -635 0 l-320 3
317 200 317 201 200 -126 c110 -70 253 -160 318 -201z"/>
<path d="M126 1374 c-38 -37 -4 -94 56 -94 l28 0 0 -475 0 -475 -34 0 c-40 0
-66 -22 -66 -55 0 -52 12 -55 264 -55 213 0 234 2 249 18 38 42 7 92 -56 92
l-37 0 0 475 0 475 33 0 c64 0 100 55 61 94 -13 14 -50 16 -249 16 -199 0
-236 -2 -249 -16z m294 -569 l0 -475 -50 0 -50 0 0 475 0 475 50 0 50 0 0
-475z"/>
<path d="M756 1374 c-38 -37 -4 -94 56 -94 l28 0 0 -475 0 -475 -33 0 c-58 0
-88 -58 -49 -93 16 -15 49 -17 250 -17 250 0 262 3 262 55 0 33 -26 55 -66 55
l-34 0 0 475 0 475 28 0 c60 0 94 57 56 94 -13 14 -50 16 -249 16 -199 0 -236
-2 -249 -16z m304 -569 l0 -475 -50 0 -50 0 0 475 0 475 50 0 50 0 0 -475z"/>
<path d="M1387 1372 c-36 -40 -3 -92 58 -92 l35 0 0 -475 0 -475 -38 0 c-63 0
-95 -56 -54 -93 16 -15 49 -17 250 -17 250 0 262 3 262 55 0 33 -26 55 -66 55
l-34 0 0 475 0 475 28 0 c40 0 72 26 72 59 0 50 -6 51 -260 51 -217 0 -238 -2
-253 -18z m303 -567 l0 -475 -50 0 -50 0 0 475 0 475 50 0 50 0 0 -475z"/>
<path d="M20 100 c-24 -24 -25 -38 -4 -68 l15 -22 973 0 c930 0 974 1 989 18
22 25 21 48 -3 72 -20 20 -33 20 -985 20 -952 0 -965 0 -985 -20z"/>
</g>
</svg>
