<svg id="Layer_1" data-name="Layer 1" xmlns="http://www.w3.org/2000/svg" viewBox="0 0 93.35 16.11"><defs><style>.cls-1{fill:#fff;}</style></defs><title>magnet-bank2</title><path class="cls-1" d="M85.82,6.49V13h2V8.9l.39,0c.35,0,.49.21,1.58,2a9.5,9.5,0,0,0,1.43,2,5.81,5.81,0,0,0,1.17,0l.93,0L92,10.69c-.76-1.23-1.5-2.36-1.65-2.53s-.19-.29-.12-.29a42.09,42.09,0,0,0,3-3.87,3.63,3.63,0,0,0-1-.07,2.32,2.32,0,0,0-1.23.2,16.42,16.42,0,0,0-1.37,1.7c-.93,1.27-1.16,1.51-1.44,1.51h-.33V0h-2Z"/><path class="cls-1" d="M0,6.62V13H1.91l0-4.45L2,4.09,3.64,7.51c.92,1.88,1.75,3.54,1.87,3.69A1.12,1.12,0,0,0,7,11.2c.11-.14.94-1.82,1.86-3.72L10.56,4l0,4.49,0,4.49h1.91V.26h-1a2.81,2.81,0,0,0-1.18.16c-.2.17-3.81,7.54-4,8.1-.08.29-.11.26-.41-.39-.17-.39-1.09-2.3-2-4.22C2.7,1.34,2.17.39,2,.34A6.25,6.25,0,0,0,.87.26H0Z"/><path class="cls-1" d="M58.13,6.64V13l3-.05c2.51,0,3-.08,3.43-.28a3.47,3.47,0,0,0,2.09-4,2.49,2.49,0,0,0-1.59-2l-.57-.25.31-.16a2.85,2.85,0,0,0,1.61-2.73c0-1.8-1-2.87-3.06-3.2a29.61,29.61,0,0,0-3-.13H58.13ZM63.25,2.4a1.83,1.83,0,0,1,.81,2.35c-.29.73-.74.93-2.32,1L60.4,5.8V2.23h1.23A6.38,6.38,0,0,1,63.25,2.4Zm.57,5.39a1.58,1.58,0,0,1,.68,1.53c0,1.32-.58,1.72-2.64,1.8l-1.47.05V7.45l1.53.05C63.15,7.53,63.51,7.59,63.82,7.79Z"/><path class="cls-1" d="M50,1.31c-.14.09-.26.54-.41,1.43l-.21,1.31-.61.1-.61.1V5.57l.57,0,.56,0V8.5c0,3.2.1,3.65.85,4.24a3.11,3.11,0,0,0,3.21-.14l.3-.25-.23-.46c-.38-.79-.56-.9-1.05-.68a.66.66,0,0,1-.7,0l-.29-.17,0-2.71,0-2.71h2.15V4.07H51.32V1.18h-.56A1.93,1.93,0,0,0,50,1.31Z"/><path class="cls-1" d="M16.71,4a5.59,5.59,0,0,0-1.84,1c-.23.18-.23.2,0,.67.37.77.64.83,1.55.34s1.78-.58,2.27-.12c.27.26.33.45.38,1.1l0,.79-.93.08c-1.74.13-3.26.88-3.7,1.81a3,3,0,0,0,.29,2.66,3.12,3.12,0,0,0,3.43.42,2.74,2.74,0,0,0,.76-.51c.24-.33.35-.28.54.24s.19.46.9.46h.73V9.86c0-3.5-.1-4.14-.74-5a3.5,3.5,0,0,0-.85-.72A4.28,4.28,0,0,0,16.71,4Zm2.39,6c0,.75,0,.8-.43,1.15a1.94,1.94,0,0,1-2.18.18,1.12,1.12,0,0,1-.07-1.3,4.06,4.06,0,0,1,2.42-.8C19.07,9.18,19.1,9.23,19.1,10Z"/><path class="cls-1" d="M24.95,3.92a2.89,2.89,0,0,0-1.69,1,2.86,2.86,0,0,0,.17,3.84l.36.35-.43.47a1.63,1.63,0,0,0-.19,2.07l.24.35-.42.28a1.87,1.87,0,0,0,.18,3.12,4.32,4.32,0,0,0,2.9.66A3.66,3.66,0,0,0,28,15.7,3,3,0,0,0,29.84,13c0-1.5-.82-2.06-3.31-2.26-1.46-.1-1.95-.26-1.95-.58s.38-.54,1.09-.5a3.31,3.31,0,0,0,2.51-.85A2.46,2.46,0,0,0,29,6.65c0-.85,0-.89.31-1,.55-.12.67-.26.7-.83l0-.54H28.94a4.05,4.05,0,0,1-1.59-.21A5.13,5.13,0,0,0,24.95,3.92ZM26.4,5.51c.57.18.81.56.81,1.29s-.17,1-.66,1.29a1.38,1.38,0,0,1-2.09-1.27C24.47,5.73,25.3,5.18,26.4,5.51Zm1.15,7.29c.36.16.39.22.36.67a.79.79,0,0,1-.45.76,2.64,2.64,0,0,1-1.58.26c-1,0-1.21,0-1.49-.28a1,1,0,0,1-.1-1.44c.31-.34.32-.34,1.59-.25A7,7,0,0,1,27.55,12.8Z"/><path class="cls-1" d="M34.7,4a3.22,3.22,0,0,0-1,.59c-.55.49-.6.49-.6.14,0-.5-.42-.79-1.13-.79h-.66v9h2V6.43L33.86,6A1.53,1.53,0,0,1,36,6l.39.38,0,3.29,0,3.29h2l0-3.37,0-3.38L38,5.44a2.27,2.27,0,0,0-.9-1.14A2.94,2.94,0,0,0,34.7,4Z"/><path class="cls-1" d="M42.91,3.93A3.41,3.41,0,0,0,41,5,4.2,4.2,0,0,0,39.78,8c-.16,2.39.93,4.37,2.67,4.94a5.73,5.73,0,0,0,2.86,0,4.2,4.2,0,0,0,1.79-1.21c.06-.2-.66-1.09-.87-1.09a3.12,3.12,0,0,0-.78.34c-1.56.87-3.09.37-3.51-1.17-.3-1.09-.48-1,2.43-1,2.2,0,2.64,0,2.76-.2.35-.46-.13-2.69-.74-3.48A3.55,3.55,0,0,0,44.7,4,3,3,0,0,0,42.91,3.93Zm1.91,2a2,2,0,0,1,.53,1l.11.56H41.79l.11-.38A2.14,2.14,0,0,1,42.52,6c.37-.37.51-.42,1.27-.43A1.06,1.06,0,0,1,44.82,5.93Z"/><path class="cls-1" d="M70.42,4a5.59,5.59,0,0,0-1.84,1c-.23.18-.23.2,0,.67.37.77.64.83,1.55.34S72,5.48,72.46,6a1.28,1.28,0,0,1,.35,1.11v.73h-.63a7.21,7.21,0,0,0-3,.87,3.11,3.11,0,0,0-.82.84,1.77,1.77,0,0,0-.26,1.35c.08,1.48.85,2.18,2.4,2.19a3.12,3.12,0,0,0,2.15-.75,1.41,1.41,0,0,1,.48-.29,3.41,3.41,0,0,1,.16.45c.11.38.14.39.86.43l.75,0,0-3.45c0-3.75-.06-3.87-.8-4.73A3.48,3.48,0,0,0,70.42,4Zm2.39,6c0,.75,0,.8-.43,1.15a1.94,1.94,0,0,1-2.18.18c-.61-.67-.12-1.6,1-1.84C72.92,9.06,72.81,9,72.81,10Z"/><path class="cls-1" d="M80.17,4a3.22,3.22,0,0,0-1,.59c-.56.49-.6.5-.6.09s-.42-.73-1.16-.73h-.63v9h2V6.43L79.34,6a1.53,1.53,0,0,1,2.09,0l.39.38,0,3.29,0,3.29h2l0-3.45c0-3.66-.08-3.86-.69-4.72A2.86,2.86,0,0,0,80.17,4Z"/></svg>