<svg id="Layer_1" data-name="Layer 1" xmlns="http://www.w3.org/2000/svg" viewBox="0 0 31.88 32"><defs><style>.cls-1{fill:#fff;}</style></defs><title>magnet-bank-logo2</title><path class="cls-1" d="M9.35,3.77C1.22,8.62,1.7,8.31,1.76,8.91a.75.75,0,0,0,.44.66c.57.27,26.9.27,27.47,0A.85.85,0,0,0,30,8.34C29.64,7.95,16.23,0,15.92,0S12.8,1.7,9.35,3.77Zm14.81,3L26,7.89l-5,0c-2.75,0-7.29,0-10.08,0l-5.08,0,5-3,5-3,3.18,1.89Z"/><path class="cls-1" d="M2,11.51c-.6.56-.06,1.41.89,1.41h.44V27.19H2.78c-.64,0-1,.33-1,.83,0,.78.19.83,4.19.83,3.38,0,3.72,0,4-.27.6-.63.11-1.38-.89-1.38H8.4V12.92h.52c1,0,1.59-.83,1-1.41-.21-.21-.79-.24-4-.24S2.19,11.3,2,11.51Zm4.67,8.55v7.14H5.06V12.92H6.65Z"/><path class="cls-1" d="M12,11.51c-.6.56-.06,1.41.89,1.41h.44V27.19H12.8c-.92,0-1.4.87-.78,1.4.25.23.78.26,4,.26,4,0,4.16,0,4.16-.83,0-.5-.41-.83-1-.83h-.54V12.92H19c1,0,1.49-.86.89-1.41-.21-.21-.79-.24-4-.24S12.19,11.3,12,11.51Zm4.83,8.55v7.14H15.23V12.92h1.59Z"/><path class="cls-1" d="M22,11.54c-.57.6,0,1.38.92,1.38h.56V27.19h-.6c-1,0-1.51.84-.86,1.4.25.23.78.26,4,.26,4,0,4.16,0,4.16-.83,0-.5-.41-.83-1-.83h-.54V12.92H29A1,1,0,0,0,30.15,12c0-.75-.1-.77-4.13-.77C22.58,11.27,22.24,11.3,22,11.54Zm4.81,8.52v7.14H25.23V12.92h1.59Z"/><path class="cls-1" d="M.3,30.65c-.38.36-.4.57-.06,1L.48,32H15.92c14.77,0,15.47,0,15.7-.27a.67.67,0,0,0,0-1.08c-.32-.3-.52-.3-15.64-.3S.62,30.35.3,30.65Z"/></svg>