<?xml version="1.0" standalone="no"?>
<!DOCTYPE svg PUBLIC "-//W3C//DTD SVG 20010904//EN"
 "http://www.w3.org/TR/2001/REC-SVG-20010904/DTD/svg10.dtd">
<svg version="1.0" xmlns="http://www.w3.org/2000/svg"
 width="789.000000pt" height="135.000000pt" viewBox="0 0 789.000000 135.000000"
 preserveAspectRatio="xMidYMid meet">
<g transform="translate(0.000000,135.000000) scale(0.100000,-0.100000)"
fill="#ffffff" stroke="none">
<path d="M7250 795 l0 -495 85 0 85 0 0 156 0 155 33 -3 c29 -3 41 -16 132
-151 58 -86 108 -150 120 -153 11 -3 55 -4 98 -2 l78 3 -116 170 c-64 94 -126
180 -138 193 -11 12 -16 22 -10 22 10 0 253 283 253 295 0 3 -37 5 -83 5 -56
0 -89 -5 -103 -15 -12 -8 -63 -66 -115 -130 -78 -97 -97 -115 -121 -115 l-28
0 0 280 0 280 -85 0 -85 0 0 -495z"/>
<path d="M60 785 l0 -485 80 0 80 0 2 339 3 339 140 -261 c77 -143 147 -270
157 -281 23 -30 103 -30 127 0 9 11 79 139 156 284 l140 264 3 -342 2 -342 80
0 80 0 0 485 0 485 -83 0 c-51 0 -89 -5 -99 -12 -17 -13 -319 -575 -333 -618
-7 -22 -9 -20 -34 30 -14 30 -91 175 -170 322 -105 196 -149 268 -165 272 -11
3 -54 6 -93 6 l-73 0 0 -485z"/>
<path d="M4930 784 l0 -486 248 4 c210 3 253 6 287 21 141 63 204 172 175 305
-15 72 -58 120 -133 149 l-48 19 26 12 c89 41 135 112 135 208 -1 137 -87 219
-256 244 -38 5 -151 10 -251 10 l-183 0 0 -486z m429 323 c66 -23 98 -107 68
-179 -24 -56 -62 -71 -194 -76 l-113 -4 0 136 0 136 103 -1 c56 0 117 -5 136
-12z m48 -411 c42 -26 58 -59 57 -117 -1 -101 -49 -131 -221 -137 l-123 -4 0
142 0 142 128 -4 c103 -2 133 -7 159 -22z"/>
<path d="M4249 1190 c-12 -7 -22 -41 -34 -109 l-18 -100 -51 -8 -51 -8 0 -50
0 -50 48 -3 47 -3 0 -217 c0 -244 8 -278 71 -323 60 -43 206 -37 269 11 l25
19 -19 35 c-32 60 -47 69 -88 52 -27 -12 -39 -12 -59 -3 l-24 13 -3 207 -2
207 90 0 90 0 0 60 0 60 -90 0 -90 0 0 110 0 110 -47 0 c-27 0 -55 -5 -64 -10z"/>
<path d="M1460 985 c-51 -15 -110 -45 -154 -80 -19 -14 -19 -15 0 -51 31 -59
54 -63 130 -26 82 41 149 44 190 9 23 -20 28 -34 32 -84 l4 -60 -78 -6 c-146
-10 -273 -67 -310 -138 -29 -56 -17 -157 24 -203 52 -59 196 -75 287 -32 28
12 56 30 64 39 20 25 29 21 45 -18 15 -35 16 -35 75 -35 l61 0 0 238 c0 267
-8 316 -62 378 -17 19 -49 44 -71 55 -53 28 -165 34 -237 14z m200 -454 c0
-57 -2 -61 -36 -88 -50 -38 -151 -46 -183 -14 -25 25 -27 68 -6 99 20 27 110
54 203 61 20 1 22 -3 22 -58z"/>
<path d="M2150 991 c-63 -14 -104 -37 -142 -79 -79 -87 -73 -213 14 -293 l30
-27 -36 -36 c-47 -47 -53 -107 -16 -158 l20 -27 -35 -21 c-91 -56 -83 -171 15
-238 58 -39 131 -54 243 -50 86 3 111 7 162 31 103 48 154 116 155 205 0 114
-69 157 -277 172 -122 8 -163 20 -163 44 0 28 32 41 91 38 80 -5 160 20 210
65 58 52 73 86 72 166 0 65 1 68 26 73 46 9 56 20 59 63 l3 41 -96 0 c-64 0
-108 5 -133 16 -43 18 -152 26 -202 15z m122 -121 c48 -14 68 -43 68 -98 0
-56 -14 -80 -55 -98 -91 -38 -175 9 -175 97 0 82 70 124 162 99z m96 -556 c30
-12 33 -17 30 -51 -2 -30 -9 -41 -38 -58 -29 -16 -52 -20 -132 -20 -82 0 -101
3 -125 21 -39 29 -43 75 -8 110 26 26 27 26 133 19 59 -4 122 -13 140 -21z"/>
<path d="M2967 986 c-26 -7 -65 -27 -87 -45 -46 -37 -50 -37 -50 -11 0 38 -35
60 -95 60 l-55 0 0 -345 0 -345 85 0 85 0 0 250 0 250 47 30 c65 42 129 42
175 1 l33 -29 3 -251 3 -251 85 0 85 0 -3 257 -3 258 -30 60 c-23 46 -41 67
-75 87 -55 34 -135 43 -203 24z"/>
<path d="M3655 990 c-64 -11 -111 -35 -164 -85 -62 -58 -92 -125 -98 -224 -13
-182 78 -333 224 -377 61 -18 177 -18 240 1 53 16 144 71 150 92 5 15 -55 83
-73 83 -8 0 -37 -12 -65 -26 -131 -66 -259 -28 -294 89 -25 83 -40 77 204 77
184 0 221 2 231 15 29 35 -11 205 -62 265 -31 37 -88 70 -143 85 -63 16 -86
17 -150 5z m160 -152 c23 -22 38 -47 44 -75 l9 -43 -153 0 -154 0 9 29 c11 40
25 63 52 87 31 28 43 32 106 33 46 1 57 -3 87 -31z"/>
<path d="M5960 985 c-51 -15 -110 -45 -154 -80 -19 -14 -19 -15 0 -51 31 -59
54 -63 130 -26 88 44 153 44 195 3 25 -26 29 -37 29 -85 l0 -56 -53 0 c-70 0
-199 -33 -254 -66 -24 -14 -55 -43 -69 -64 -23 -35 -26 -48 -22 -103 7 -113
71 -166 201 -167 72 0 118 14 180 57 20 14 39 24 40 22 2 -2 7 -17 13 -34 9
-29 12 -30 72 -33 l63 -3 -3 263 c-3 286 -5 295 -67 361 -62 68 -188 93 -301
62z m200 -454 c0 -57 -2 -61 -36 -88 -50 -38 -151 -46 -183 -14 -51 51 -10
122 82 140 146 30 137 32 137 -38z"/>
<path d="M6777 986 c-26 -7 -65 -27 -87 -45 -47 -37 -50 -38 -50 -7 0 36 -35
56 -97 56 l-53 0 0 -345 0 -345 85 0 85 0 0 250 0 250 47 30 c65 42 129 42
175 1 l33 -29 3 -251 3 -251 85 0 85 0 -3 263 c-4 279 -7 294 -58 360 -48 61
-161 89 -253 63z"/>
</g>
</svg>
