<?xml version="1.0" encoding="utf-8"?>
<!-- Generator: Adobe Illustrator 21.0.0, SVG Export Plug-In . SVG Version: 6.00 Build 0)  -->
<svg version="1.1" id="logo" xmlns="http://www.w3.org/2000/svg" xmlns:xlink="http://www.w3.org/1999/xlink" x="0px" y="0px"
	 viewBox="0 0 45 43.9" style="enable-background:new 0 0 45 43.9;" xml:space="preserve">
<style type="text/css">
	.st0{fill:#FFFFFF;}
	.st1{fill:#CC0000;}
</style>
<g id="white">
	<path class="st0" d="M40.4,33.9c-0.8-0.2-1.7-0.3-2.7-0.3c-1.6,0-3,0.3-4,0.7c-0.1,0.1-0.2,0.2-0.2,0.3c0,0,0,0.1,0,0.1
		c0.1,0.4-0.1,0.7-1.1,1c-1.5,0.3-2.4,1.9-3,2.4c-0.6,0.6-2.4,1-2.2,0.6c0.2-0.3,1-1.2,1.5-2.1c0.4-0.8,0.8-1.1,1.4-1.9
		c0.2-0.2,0.8-1.1,0.9-1.7c0.2-0.6,0.1-1.4,0.2-1.8c0.1-0.5,0.6-1.5,0.6-2.1c0-0.3-1.4,0.5-2,0.5c-0.7,0-1.3-0.4-1.9-0.4
		c-0.7,0-1.2,0.6-1.9,0.5c-0.4-0.1-0.7-0.4-1.4-0.4c-0.9,0-2.1,0.5-4.3,0.5c-2.1-0.1-4.1-2.7-4.4-3.1C15.8,26,15.4,26,15,26.4
		c-0.4,0.4-0.9,0.1-1.1-0.2c-0.3-0.5-1-1.9-2.2-2.2c-1.6-0.4-2.4,0.9-2.3,1.9c0.1,1.1,0.8,1.3,1.1,1.9c0.3,0.6,0.5,0.9,1.1,1.2
		c0.4,0.2,0.6,0.4,0.5,0.8c-0.1,0.3-0.5,0.4-0.8,0.4c-0.6,0-1-0.1-1.4-0.3c-0.4-0.2-0.7-0.6-1-1.1c-0.4-0.6-0.9-0.9-1.6-0.9
		c-0.3,0-0.6,0.1-0.9,0.2C5.3,28.6,4,29,2.7,29H1.1C4.1,37.7,12.3,43.9,22,43.9C29.7,43.9,36.5,39.9,40.4,33.9z"/>
</g>
<g>
	<path class="st0" d="M43.7,32.7h0.2l0.3,0.5h0.2l-0.3-0.5c0.2,0,0.3-0.1,0.3-0.3c0-0.2-0.1-0.3-0.4-0.3h-0.4v1.1h0.2L43.7,32.7
		L43.7,32.7z M43.7,32.6v-0.4h0.2c0.1,0,0.2,0,0.2,0.2c0,0.2-0.1,0.2-0.3,0.2H43.7L43.7,32.6z"/>
	<path class="st0" d="M45,32.6c0,0.6-0.5,1.1-1.1,1.1c-0.6,0-1.1-0.5-1.1-1.1s0.5-1.1,1.1-1.1C44.5,31.5,45,32,45,32.6z M43.9,31.7
		c-0.5,0-0.9,0.4-0.9,0.9c0,0.5,0.4,0.9,0.9,0.9c0.5,0,0.9-0.4,0.9-0.9C44.8,32.1,44.4,31.7,43.9,31.7z"/>
</g>
<g>
	<path d="M40.4,33.9c-0.8-0.2-1.7-0.3-2.7-0.3c-1.6,0-3,0.3-4,0.7c-0.1,0.1-0.2,0.2-0.2,0.3c0,0,0,0.1,0,0.1c0.1,0.4-0.1,0.7-1.1,1
		c-1.5,0.3-2.4,1.9-3,2.4c-0.6,0.6-2.4,1-2.2,0.6c0.2-0.3,1-1.2,1.5-2.1c0.4-0.8,0.8-1.1,1.4-1.9c0.2-0.2,0.8-1.1,0.9-1.7
		c0.2-0.6,0.1-1.4,0.2-1.8c0.1-0.5,0.6-1.5,0.6-2.1c0-0.3-1.4,0.5-2,0.5c-0.7,0-1.3-0.4-1.9-0.4c-0.7,0-1.2,0.6-1.9,0.5
		c-0.4-0.1-0.7-0.4-1.4-0.4c-0.9,0-2.1,0.5-4.3,0.5c-2.1-0.1-4.1-2.7-4.4-3.1C15.8,26,15.4,26,15,26.4c-0.4,0.4-0.9,0.1-1.1-0.2
		c-0.3-0.5-1-1.9-2.2-2.2c-1.6-0.4-2.4,0.9-2.3,1.9c0.1,1.1,0.8,1.3,1.1,1.9c0.3,0.6,0.5,0.9,1.1,1.2c0.4,0.2,0.6,0.4,0.5,0.8
		c-0.1,0.3-0.5,0.4-0.8,0.4c-0.6,0-1-0.1-1.4-0.3c-0.4-0.2-0.7-0.6-1-1.1c-0.4-0.6-0.9-0.9-1.6-0.9c-0.3,0-0.6,0.1-0.9,0.2
		C5.3,28.6,4,29,2.7,29H1.1C0.4,26.8,0,24.4,0,22C0,9.8,9.8,0,22,0c12.1,0,22,9.8,22,22C43.9,26.4,42.6,30.5,40.4,33.9z"/>
</g>
<path d="M26.8,31.9c0.1,0.1,0.3,0.5,0.1,1c-0.1,0.2-0.3,0.4-0.5,0.6c-0.3,0.2-0.9,0.5-1.7,0c-0.4-0.3-0.5-0.4-1.1-0.3
	c-0.4,0.1-0.6-0.4-0.5-0.8c0.2-0.4,0.8-0.7,1.6-0.2c0.4,0.2,0.9,0.7,1.4,0.3C26.3,32.3,26.4,32.2,26.8,31.9
	C26.7,31.9,26.7,31.9,26.8,31.9C26.8,31.9,26.8,31.9,26.8,31.9z"/>
<path id="red" class="st1" d="M20.2,10.5c-2.5,0.2-2.8,0.5-3.3,1c-0.7,0.7-1.6-0.9-1.6-0.9c-0.5-0.1-1.2-1-0.8-1.8
	c0.3-0.8,1-0.6,1.2-0.3c0.2,0.3,0.8,0.8,1.4,0.8c0.7,0,1.4-0.2,2.5-0.2c1.1,0,1.8,0.4,1.9,0.8C21.6,10.1,21.5,10.4,20.2,10.5z
	 M22.9,6.3C22.9,6.3,22.9,6.3,22.9,6.3C22.9,6.3,22.8,6.2,22.9,6.3c-0.1-0.1-0.1-0.1,0-0.1c0.5-0.3,1.2-0.5,2.1-0.6
	c0.3,0,0.5,0,0.7,0c0,0,0.1,0,0.1,0c1.4,0,2.5,0.6,2.5,1.2c0,0.7-1.2,1.2-2.6,1.1c-0.5,0-0.9-0.1-1.2-0.2c0,0-0.1,0-0.1-0.1
	c0,0,0-0.1,0.1-0.1C25.4,7.4,26,7,25.9,6.7c-0.1-0.4-1.2-0.6-2.6-0.5C23.2,6.2,23.1,6.2,22.9,6.3z M34.3,16.1
	c-0.2,0.7-0.5,1.7-1.9,2.4c-0.2,0.1-0.3-0.1-0.2-0.2c0.5-0.9,0.6-1.1,0.8-1.4c0.2-0.5,0.3-1.2-0.1-2.7c-0.8-3-2.5-6.9-3.8-8.2
	c-1.2-1.2-3.4-1.6-5.4-1.1c-0.7,0.2-2.2,0.9-4.8,0.3c-4.6-1-5.3,1.3-5.5,2.3c-0.3,1-0.9,3.8-0.9,3.8c-0.2,1.2-0.5,3.2,6.6,4.5
	c3.3,0.6,3.5,1.5,3.6,2.1c0.3,1.1,0.7,1.7,1.2,2c0.5,0.3,0,0.6-0.5,0.6c-1.4,0.1-6.6-1.3-9.7-3.1c-2.5-1.5-2.6-2.9-2-4.1
	c-3.8-0.4-6.7,0.4-7.2,2.2c-0.9,3.1,6.8,8.4,15.6,11c9.2,2.8,18.7,0.8,19.7-4.9C40.3,18.9,38.1,17,34.3,16.1z"/>
</svg>
